<svg width="307" height="100" viewBox="0 0 307 100" fill="none" xmlns="http://www.w3.org/2000/svg">
<path d="M78.875 55.0625V46.875C78.875 37.25 78.6667 25.9375 78.25 12.9375C78.1667 10.7292 73.6042 9.25 64.5625 8.5C63.9792 7.04167 63.6875 5.70833 63.6875 4.5C63.6875 3.75 63.9792 2.47917 64.5625 0.6875C70.8958 0.9375 77.25 1.0625 83.625 1.0625C90.0417 1.0625 96.625 0.9375 103.375 0.6875C103.958 2.47917 104.25 3.75 104.25 4.5C104.25 5.70833 103.958 7.04167 103.375 8.5C94.75 9.33333 90.3958 10.8125 90.3125 12.9375C89.7708 21.7292 89.5 34.5833 89.5 51.5C89.5 70.5833 89.7708 86.0208 90.3125 97.8125L85.1875 97.9375L25.875 25.375C25.875 26.125 25.8542 27.5 25.8125 29.5C25.7708 31.4583 25.75 32.9792 25.75 34.0625C25.75 54.1875 26.0208 71.3333 26.5625 85.5C26.6458 87.75 31.2083 89.25 40.25 90C40.8333 91.4583 41.125 92.7917 41.125 94C41.125 94.9167 40.8333 96.2708 40.25 98.0625C33.8333 97.8125 27.4792 97.6875 21.1875 97.6875C14.7708 97.6875 8.1875 97.8125 1.4375 98.0625C0.854167 96.2708 0.5625 94.9167 0.5625 94C0.5625 92.7917 0.854167 91.4583 1.4375 90C10.0625 89.1667 14.4167 87.6667 14.5 85.5C15 76.75 15.25 63.9167 15.25 47C15.25 34.0417 15.0833 22.4792 14.75 12.3125C12.0417 10.1875 7.91667 8.91667 2.375 8.5C1.75 7.375 1.4375 6.08333 1.4375 4.625C1.4375 3.08333 1.83333 1.6875 2.625 0.4375C11.3333 0.854167 22.3333 1.0625 35.625 1.0625L78.875 55.0625ZM86.9375 51.5C86.9375 38.875 87.2083 26.0208 87.75 12.9375C87.9167 9.1875 92.5208 6.89583 101.562 6.0625C101.896 5.35417 101.896 4.375 101.562 3.125C93.6875 3.375 88.1042 3.5 84.8125 3.5C79.6042 3.5 73.6667 3.375 67 3.125C66.6667 4.375 66.6667 5.35417 67 6.0625C76.125 6.89583 80.7292 9.1875 80.8125 12.9375C81.2292 25.9375 81.4375 37.25 81.4375 46.875C81.4375 52.5 81.3542 60.0833 81.1875 69.625L27.3125 3.625C17.9375 3.625 10.1667 3.45833 4 3.125C3.66667 4.125 3.66667 5.10417 4 6.0625C9.375 6.39583 13.8125 8.10417 17.3125 11.1875C17.6458 21.3125 17.8125 33.25 17.8125 47C17.8125 59.625 17.5625 72.4583 17.0625 85.5C16.8958 89.2917 12.2917 91.6042 3.25 92.4375C2.91667 93.1042 2.91667 94.0833 3.25 95.375C11.0833 95.125 16.6667 95 20 95C25.2083 95 31.1458 95.125 37.8125 95.375C38.1458 94.0833 38.1458 93.1042 37.8125 92.4375C28.6875 91.6042 24.0833 89.2917 24 85.5C23.5833 72.5417 23.375 61.25 23.375 51.625C23.375 40.625 23.5 29.7292 23.75 18.9375H24.375L86.4375 95.375L87.625 95.25C87.1667 85.4583 86.9375 70.875 86.9375 51.5ZM146.938 42.25C151.229 42.25 154.625 44.3125 157.125 48.4375C159.667 52.5208 160.938 58.875 160.938 67.5C160.938 76.125 159.667 82.4792 157.125 86.5625C154.625 90.6458 151.229 92.6875 146.938 92.6875C144.562 92.6875 142.396 92.1875 140.438 91.1875C138.521 90.1875 136.875 88.6458 135.5 86.5625C134.167 84.4792 133.125 81.875 132.375 78.75C131.625 75.5833 131.25 71.8333 131.25 67.5C131.25 63.2083 131.625 59.4792 132.375 56.3125C133.125 53.1042 134.167 50.4792 135.5 48.4375C136.875 46.3542 138.521 44.8125 140.438 43.8125C142.396 42.7708 144.562 42.25 146.938 42.25ZM146.938 96.8125C150.812 96.8125 154.292 96.0833 157.375 94.625C160.458 93.1667 163.083 91.1458 165.25 88.5625C167.458 85.9375 169.146 82.8333 170.312 79.25C171.479 75.6667 172.062 71.75 172.062 67.5C172.062 63.25 171.479 59.3333 170.312 55.75C169.146 52.1667 167.458 49.0833 165.25 46.5C163.083 43.875 160.458 41.8333 157.375 40.375C154.292 38.9167 150.812 38.1875 146.938 38.1875C142.812 38.1875 139.083 38.9167 135.75 40.375C132.417 41.8333 129.583 43.8542 127.25 46.4375C124.958 49.0208 123.188 52.125 121.938 55.75C120.688 59.3333 120.062 63.25 120.062 67.5C120.062 71.7917 120.688 75.7292 121.938 79.3125C123.188 82.8958 124.958 86 127.25 88.625C129.583 91.2083 132.417 93.2292 135.75 94.6875C139.083 96.1042 142.812 96.8125 146.938 96.8125ZM149.125 35.625C154.167 35.625 158.646 36.3958 162.562 37.9375C166.521 39.4792 169.854 41.6667 172.562 44.5C175.271 47.2917 177.333 50.6458 178.75 54.5625C180.167 58.4792 180.875 62.7917 180.875 67.5C180.875 72.1667 180.167 76.4583 178.75 80.375C177.333 84.2917 175.271 87.6667 172.562 90.5C169.896 93.2917 166.583 95.4583 162.625 97C158.667 98.5833 154.167 99.375 149.125 99.375C144.125 99.375 139.646 98.5833 135.688 97C131.771 95.4583 128.458 93.2917 125.75 90.5C123.083 87.6667 121.042 84.3125 119.625 80.4375C118.208 76.5208 117.5 72.2083 117.5 67.5C117.5 62.7917 118.208 58.4792 119.625 54.5625C121.042 50.6458 123.104 47.2917 125.812 44.5C128.521 41.6667 131.833 39.4792 135.75 37.9375C139.667 36.3958 144.125 35.625 149.125 35.625ZM140.062 67.5C140.062 80.9583 143.083 88.4167 149.125 89.875C155.292 88.4167 158.375 80.9583 158.375 67.5C158.375 54.1667 155.292 46.6875 149.125 45.0625C143.083 46.6875 140.062 54.1667 140.062 67.5ZM212.5 45.75H237.062C237.646 44.125 237.646 42.625 237.062 41.25H212.5V27.5625C211.458 27.1042 210.417 27.1042 209.375 27.5625C207.833 30.4375 206.125 32.9583 204.25 35.125C202.375 37.25 200.792 38.75 199.5 39.625C198.25 40.4583 196.438 41.5417 194.062 42.875C193.771 43.75 193.771 44.7083 194.062 45.75H201.688V78.5C201.688 90.7083 206.729 96.8125 216.812 96.8125C221.104 96.8125 225.062 95.7083 228.688 93.5C232.312 91.25 235.021 88.5 236.812 85.25C236.438 84.3333 235.75 83.8333 234.75 83.75C230.833 87.25 227.042 89 223.375 89C216.125 89 212.5 85.7083 212.5 79.125V45.75ZM234 81.0625C236.625 81.3958 238.5 82.8333 239.625 85.375C237.458 89.3333 234.312 92.6458 230.188 95.3125C226.062 98.0208 221.604 99.375 216.812 99.375C205.062 99.375 199.188 92.4167 199.188 78.5V48.25H191.5C190.875 46.0417 190.875 43.75 191.5 41.375C194.042 39.9167 195.979 38.7292 197.312 37.8125C198.646 36.8542 200.312 35.3125 202.312 33.1875C204.312 31.0625 206.083 28.5 207.625 25.5C211.542 23.875 216.104 23.9583 221.312 25.75V38.6875H239.5C240.833 41.7708 240.833 44.9583 239.5 48.25H221.312V79.125C221.312 83.125 222.75 85.4792 225.625 86.1875C228.125 85.6458 230.917 83.9375 234 81.0625ZM278.938 42.25C282.271 42.25 284.688 43.3333 286.188 45.5C287.688 47.625 288.438 50.2917 288.438 53.5C288.438 54.7083 288.229 56.0833 287.812 57.625H263.438C264.729 52.4167 266.812 48.5625 269.688 46.0625C272.604 43.5208 275.688 42.25 278.938 42.25ZM262.812 61.875H296.875C297.542 59.7917 297.875 57.6458 297.875 55.4375C297.875 50.5625 296.479 46.4792 293.688 43.1875C290.938 39.8542 286.542 38.1875 280.5 38.1875C272.625 38.1875 266 41.0417 260.625 46.75C255.25 52.4583 252.562 59.7083 252.562 68.5C252.562 77.875 255.125 84.9375 260.25 89.6875C265.375 94.4375 271.396 96.8125 278.312 96.8125C283.438 96.8125 288.188 95.4375 292.562 92.6875C296.979 89.8958 300.208 85.7083 302.25 80.125C301.667 79.4583 300.854 79 299.812 78.75C299.646 79 299.146 79.6875 298.312 80.8125C297.521 81.8958 296.938 82.6875 296.562 83.1875C296.188 83.6458 295.5 84.3333 294.5 85.25C293.542 86.125 292.604 86.7708 291.688 87.1875C290.812 87.6042 289.688 88.0208 288.312 88.4375C286.938 88.8125 285.438 89 283.812 89C277.396 89 272.292 87.1042 268.5 83.3125C264.708 79.4792 262.729 74.3333 262.562 67.875C262.562 66.4167 262.646 64.4167 262.812 61.875ZM298.812 75.8125C301.438 76.3958 303.562 77.7083 305.188 79.75C302.812 86.25 299.146 91.1458 294.188 94.4375C289.229 97.7292 283.938 99.375 278.312 99.375C270.646 99.375 264 96.7917 258.375 91.625C252.792 86.4583 250 78.75 250 68.5C250 59.2083 252.854 51.4167 258.562 45.125C264.312 38.7917 272.438 35.625 282.938 35.625C298.812 35.625 306.75 42.2292 306.75 55.4375C306.75 58.0208 306.146 61.0208 304.938 64.4375H271.375V68.5C271.583 73.5417 272.958 77.6458 275.5 80.8125C278.042 83.9375 281.542 85.7708 286 86.3125C288.625 86.0625 290.792 85.1667 292.5 83.625C294.208 82.0833 296.312 79.4792 298.812 75.8125ZM285.875 53.5C285.875 48.9167 284.333 46.1458 281.25 45.1875C277.583 46.3125 274.854 49.6042 273.062 55.0625H285.75C285.75 54.8958 285.771 54.6458 285.812 54.3125C285.854 53.9792 285.875 53.7083 285.875 53.5Z" fill="white"/>
</svg>
