<svg width="173" height="169" viewBox="0 0 173 169" fill="none" xmlns="http://www.w3.org/2000/svg">
<rect width="173" height="169" fill="#2E2B2B"/>
<path d="M112.875 91.0625V82.875C112.875 73.25 112.667 61.9375 112.25 48.9375C112.167 46.7292 107.604 45.25 98.5625 44.5C97.9792 43.0417 97.6875 41.7083 97.6875 40.5C97.6875 39.75 97.9792 38.4792 98.5625 36.6875C104.896 36.9375 111.25 37.0625 117.625 37.0625C124.042 37.0625 130.625 36.9375 137.375 36.6875C137.958 38.4792 138.25 39.75 138.25 40.5C138.25 41.7083 137.958 43.0417 137.375 44.5C128.75 45.3333 124.396 46.8125 124.312 48.9375C123.771 57.7292 123.5 70.5833 123.5 87.5C123.5 106.583 123.771 122.021 124.312 133.812L119.188 133.938L59.875 61.375C59.875 62.125 59.8542 63.5 59.8125 65.5C59.7708 67.4583 59.75 68.9792 59.75 70.0625C59.75 90.1875 60.0208 107.333 60.5625 121.5C60.6458 123.75 65.2083 125.25 74.25 126C74.8333 127.458 75.125 128.792 75.125 130C75.125 130.917 74.8333 132.271 74.25 134.062C67.8333 133.812 61.4792 133.688 55.1875 133.688C48.7708 133.688 42.1875 133.812 35.4375 134.062C34.8542 132.271 34.5625 130.917 34.5625 130C34.5625 128.792 34.8542 127.458 35.4375 126C44.0625 125.167 48.4167 123.667 48.5 121.5C49 112.75 49.25 99.9167 49.25 83C49.25 70.0417 49.0833 58.4792 48.75 48.3125C46.0417 46.1875 41.9167 44.9167 36.375 44.5C35.75 43.375 35.4375 42.0833 35.4375 40.625C35.4375 39.0833 35.8333 37.6875 36.625 36.4375C45.3333 36.8542 56.3333 37.0625 69.625 37.0625L112.875 91.0625ZM120.938 87.5C120.938 74.875 121.208 62.0208 121.75 48.9375C121.917 45.1875 126.521 42.8958 135.562 42.0625C135.896 41.3542 135.896 40.375 135.562 39.125C127.688 39.375 122.104 39.5 118.812 39.5C113.604 39.5 107.667 39.375 101 39.125C100.667 40.375 100.667 41.3542 101 42.0625C110.125 42.8958 114.729 45.1875 114.812 48.9375C115.229 61.9375 115.438 73.25 115.438 82.875C115.438 88.5 115.354 96.0833 115.188 105.625L61.3125 39.625C51.9375 39.625 44.1667 39.4583 38 39.125C37.6667 40.125 37.6667 41.1042 38 42.0625C43.375 42.3958 47.8125 44.1042 51.3125 47.1875C51.6458 57.3125 51.8125 69.25 51.8125 83C51.8125 95.625 51.5625 108.458 51.0625 121.5C50.8958 125.292 46.2917 127.604 37.25 128.438C36.9167 129.104 36.9167 130.083 37.25 131.375C45.0833 131.125 50.6667 131 54 131C59.2083 131 65.1458 131.125 71.8125 131.375C72.1458 130.083 72.1458 129.104 71.8125 128.438C62.6875 127.604 58.0833 125.292 58 121.5C57.5833 108.542 57.375 97.25 57.375 87.625C57.375 76.625 57.5 65.7292 57.75 54.9375H58.375L120.438 131.375L121.625 131.25C121.167 121.458 120.938 106.875 120.938 87.5Z" fill="white"/>
</svg>
