<svg width="379" height="295" viewBox="0 0 379 295" fill="none" xmlns="http://www.w3.org/2000/svg">
<path d="M94.592 130.96V218.128H87.552L26.752 141.2V206.224L40.192 213.008L37.632 218.128H7.68V214.16L19.712 204.688V129.68L6.4 122.512L8.96 117.392H28.288L87.552 192.4V129.168L74.24 122.512L76.8 117.392H106.752V121.488L94.592 130.96Z" fill="white"/>
<path d="M145.488 148.752C151.12 148.752 156.155 150.245 160.592 153.232C165.115 156.133 168.613 160.101 171.088 165.136C173.648 170.171 174.928 175.717 174.928 181.776C174.928 188.347 172.923 194.533 168.912 200.336C164.901 206.053 159.867 210.661 153.808 214.16C147.835 217.573 142.032 219.28 136.4 219.28C130.768 219.28 125.691 217.829 121.168 214.928C116.731 211.941 113.232 207.931 110.672 202.896C108.197 197.861 106.96 192.315 106.96 186.256C106.96 179.685 108.965 173.541 112.976 167.824C116.987 162.021 121.979 157.413 127.952 154C134.011 150.501 139.856 148.752 145.488 148.752ZM138.064 159.504C128.421 159.504 123.6 166.373 123.6 180.112C123.6 188.219 125.349 195.003 128.848 200.464C132.347 205.84 137.339 208.528 143.824 208.528C153.467 208.528 158.288 201.616 158.288 187.792C158.288 179.771 156.539 173.072 153.04 167.696C149.541 162.235 144.549 159.504 138.064 159.504Z" fill="white"/>
<path d="M272.688 218.256C269.275 218.939 265.179 219.28 260.4 219.28C254.768 219.28 249.691 217.829 245.168 214.928C240.731 211.941 237.232 207.931 234.672 202.896C232.197 197.861 230.96 192.315 230.96 186.256C230.96 179.685 232.965 173.541 236.976 167.824C240.987 162.021 245.979 157.413 251.952 154C258.011 150.501 263.856 148.752 269.488 148.752C277.595 148.752 283.867 151.952 288.304 158.352C292.827 164.752 295.088 173.2 295.088 183.696H247.728C248.24 190.949 250.203 196.88 253.616 201.488C257.115 206.096 261.851 208.4 267.824 208.4C273.371 208.4 281.264 204.091 291.504 195.472L295.344 200.336L272.688 218.256ZM262.064 159.504C252.848 159.504 248.027 165.819 247.6 178.448H277.552C276.784 173.84 275.973 170.341 275.12 167.952C274.352 165.477 272.944 163.472 270.896 161.936C268.933 160.315 265.989 159.504 262.064 159.504Z" fill="white"/>
<rect x="199" y="133" width="11" height="57" rx="5.5" fill="white"/>
<rect width="11.9444" height="61.0224" rx="5.97219" transform="matrix(-0.00678981 0.999977 -0.999967 -0.00813137 235.051 155.529)" fill="white"/>
</svg>
