<svg width="24" height="24" viewBox="0 0 24 24" fill="none" xmlns="http://www.w3.org/2000/svg">
<g opacity="0.8">
<path d="M9.34682 15.1498L8.84101 20.5255C8.84101 20.5255 8.62928 22.1727 10.2761 20.5255C11.9229 18.8783 13.4992 17.6081 13.4992 17.6081" fill="white"/>
<path d="M9.34682 15.1498L8.84101 20.5255C8.84101 20.5255 8.62928 22.1727 10.2761 20.5255C11.9229 18.8783 13.4992 17.6081 13.4992 17.6081" fill="white"/>
</g>
<path opacity="0.6" fill-rule="evenodd" clip-rule="evenodd" d="M8.48808 20.5725L5.85315 13.2794L5.94717 11.3968L20.6043 4.52734L14.7697 15.7966C14.7697 15.7966 14.0824 16.5117 13.1885 17.4242L9.34692 15.1498L8.84111 20.5255C8.84111 20.5255 8.77289 21.0562 9.01509 21.2139C8.72662 21.0666 8.48808 20.5725 8.48808 20.5725Z" fill="white"/>
<path d="M5.9007 13.5396L0.480567 11.7736C0.480567 11.7736 -0.167199 11.5108 0.0413813 10.9149C0.0843189 10.792 0.170934 10.6874 0.43004 10.5077C1.631 9.67061 22.6588 2.11267 22.6588 2.11267C22.6588 2.11267 23.2525 1.9126 23.6026 2.04567C23.6893 2.07249 23.7672 2.12183 23.8285 2.18866C23.8898 2.25548 23.9323 2.33739 23.9515 2.426C23.9894 2.58251 24.0052 2.74354 23.9985 2.90442C23.9969 3.0436 23.98 3.1726 23.9672 3.37488C23.8392 5.44126 20.0066 20.8633 20.0066 20.8633C20.0066 20.8633 19.7773 21.7657 18.9558 21.7966C18.7539 21.8031 18.5527 21.7689 18.3643 21.696C18.1759 21.6232 18.0041 21.5131 17.8592 21.3724C16.247 19.9856 10.6747 16.2408 9.44342 15.4172C9.41565 15.3983 9.39225 15.3736 9.37482 15.3449C9.35739 15.3162 9.34632 15.284 9.34237 15.2506C9.32516 15.1638 9.41954 15.0563 9.41954 15.0563C9.41954 15.0563 19.1223 6.43178 19.3805 5.52639C19.4005 5.45625 19.325 5.42164 19.2236 5.45236C18.5791 5.68944 7.40759 12.7443 6.17461 13.523C6.08586 13.5498 5.99205 13.5555 5.9007 13.5396Z" fill="white"/>
</svg>
