<svg width="105" height="99" viewBox="0 0 105 99" fill="none" xmlns="http://www.w3.org/2000/svg">
<path d="M78.875 55.0625V46.875C78.875 37.25 78.6667 25.9375 78.25 12.9375C78.1667 10.7292 73.6042 9.25 64.5625 8.5C63.9792 7.04167 63.6875 5.70833 63.6875 4.5C63.6875 3.75 63.9792 2.47917 64.5625 0.6875C70.8958 0.9375 77.25 1.0625 83.625 1.0625C90.0417 1.0625 96.625 0.9375 103.375 0.6875C103.958 2.47917 104.25 3.75 104.25 4.5C104.25 5.70833 103.958 7.04167 103.375 8.5C94.75 9.33333 90.3958 10.8125 90.3125 12.9375C89.7708 21.7292 89.5 34.5833 89.5 51.5C89.5 70.5833 89.7708 86.0208 90.3125 97.8125L85.1875 97.9375L25.875 25.375C25.875 26.125 25.8542 27.5 25.8125 29.5C25.7708 31.4583 25.75 32.9792 25.75 34.0625C25.75 54.1875 26.0208 71.3333 26.5625 85.5C26.6458 87.75 31.2083 89.25 40.25 90C40.8333 91.4583 41.125 92.7917 41.125 94C41.125 94.9167 40.8333 96.2708 40.25 98.0625C33.8333 97.8125 27.4792 97.6875 21.1875 97.6875C14.7708 97.6875 8.1875 97.8125 1.4375 98.0625C0.854167 96.2708 0.5625 94.9167 0.5625 94C0.5625 92.7917 0.854167 91.4583 1.4375 90C10.0625 89.1667 14.4167 87.6667 14.5 85.5C15 76.75 15.25 63.9167 15.25 47C15.25 34.0417 15.0833 22.4792 14.75 12.3125C12.0417 10.1875 7.91667 8.91667 2.375 8.5C1.75 7.375 1.4375 6.08333 1.4375 4.625C1.4375 3.08333 1.83333 1.6875 2.625 0.4375C11.3333 0.854167 22.3333 1.0625 35.625 1.0625L78.875 55.0625ZM86.9375 51.5C86.9375 38.875 87.2083 26.0208 87.75 12.9375C87.9167 9.1875 92.5208 6.89583 101.562 6.0625C101.896 5.35417 101.896 4.375 101.562 3.125C93.6875 3.375 88.1042 3.5 84.8125 3.5C79.6042 3.5 73.6667 3.375 67 3.125C66.6667 4.375 66.6667 5.35417 67 6.0625C76.125 6.89583 80.7292 9.1875 80.8125 12.9375C81.2292 25.9375 81.4375 37.25 81.4375 46.875C81.4375 52.5 81.3542 60.0833 81.1875 69.625L27.3125 3.625C17.9375 3.625 10.1667 3.45833 4 3.125C3.66667 4.125 3.66667 5.10417 4 6.0625C9.375 6.39583 13.8125 8.10417 17.3125 11.1875C17.6458 21.3125 17.8125 33.25 17.8125 47C17.8125 59.625 17.5625 72.4583 17.0625 85.5C16.8958 89.2917 12.2917 91.6042 3.25 92.4375C2.91667 93.1042 2.91667 94.0833 3.25 95.375C11.0833 95.125 16.6667 95 20 95C25.2083 95 31.1458 95.125 37.8125 95.375C38.1458 94.0833 38.1458 93.1042 37.8125 92.4375C28.6875 91.6042 24.0833 89.2917 24 85.5C23.5833 72.5417 23.375 61.25 23.375 51.625C23.375 40.625 23.5 29.7292 23.75 18.9375H24.375L86.4375 95.375L87.625 95.25C87.1667 85.4583 86.9375 70.875 86.9375 51.5Z" fill="white"/>
</svg>
